<svg xmlns="http://www.w3.org/2000/svg" width="169.7" height="64.6" viewBox="0 0 169.7 64.6">
  <path fill="#fff" d="M46.4 22.6c1.9-1.2 6.6-2.7 7.5.8 1 3.7-1.4 8.2-8.1 9.5.2-3.9.5-7.9.6-10.3m5.5-10.4c-6.3.5-13.1 3.9-15.1 5.1-.9 12.6-1.3 24.8-1.4 36.4 2.5-.6 6.3-1.6 8.8-2.5.3-2.3.8-8.9 1-10.7 1.3 1.6 5.2 6.4 7 8.6 2.8-.6 7.3-2 9.6-2.9-2.3-3.3-5.1-7.2-6.8-9.4 6.6-3.9 10.5-10 9-16.7-1.1-5.2-5.6-8-10.9-8-.3 0-.8.1-1.2.1M0 11.8c.8 17.5 2.5 36.1 4.5 52.8 3.8-.9 8.5-2.5 11.7-3.9-.2-3.4-.6-10.3-1-17.5 5.4-1.9 12.3-4.2 16.5-5.7.1-3.3 0-8-.2-11.5-4.2 1.4-11.9 4-17 5.8-.3-4.6-.5-8.5-.7-10.8 5.3-2 13.9-4.9 18.7-6.5.2-4.1.3-10.2.1-14.5C21.6 3.2 9.7 7.5 0 11.8M69.2 19.1c-1 7-2.7 23.3-3.3 33.2 4.8-.5 14.7-1.7 20.1-2.5.4-2 .9-5.6 1.1-7.9-3.4.5-8.6 1.2-12 1.7.1-.6.3-2.6.6-5 2.9-.5 7.8-1.2 11.2-1.7.2-1.6.6-4.7.6-6.4-3 .4-8.9 1.3-11.1 1.7.3-2.3.5-4.4.6-5.4 3.3-.6 8.9-1.5 12.1-1.9.6-3.1.9-6.1 1.1-9.1-5.9.5-15.7 2.2-21 3.3M157.9 11.1c-1.3 4.3-4.6 17-6.4 24.8 2.3-.2 4.8-.2 7.1.1 2.5-6.1 7-15.8 11.1-24.5-2.3-.4-5.3-.7-8-.7-1.4.1-2.7.2-3.8.3M148 42.7c-.7 2.4.8 4.8 3.6 5.3 2.7.4 5.7-1.3 6.4-3.8.7-2.6-.8-4.8-3.5-5.2-.3-.1-.7-.1-1-.1-2.4-.1-4.7 1.4-5.5 3.8M101.5 13.3c-5 2.6-7.6 6.3-7.5 10.7.1 5.8 6.6 7.4 9.4 9.1 1 .6 1.3 1.4 1.1 2-.9 3.2-8.4 2.9-12.1 2.7-.6 1.9-1.6 6.1-1.9 8.5 11.3 1.3 22.3-.7 25.1-9.5 1.1-3.5.2-6.2-2.3-8.1-2.1-1.6-5-2.5-6.8-3.4-1.5-.8-1.9-1.8-1.5-2.7 1-2.6 7.2-2.5 11.1-1.9.9-2.5 1.8-6.2 2.5-9.3-1.9-.4-3.9-.5-5.8-.5-4.2 0-8.2.8-11.3 2.4M139 18.5c-.7 2.5-1.9 7.4-3.2 12.8-2.2.1-5 .3-7.2.6 1.2-5.5 2.2-10.5 2.7-13-3.3.1-6.3.4-9.3.9-.7 3-5.2 22.5-7.1 33.1 2.6 0 6.1-.3 9-.7.7-2.3 1.6-6.4 2.7-11 2.1-.2 4.5-.4 7.1-.7-1.1 5-2 9.3-2.4 11.5 2.6 0 6.3-.4 9.1-.8 2-7.5 6.6-27.2 7.7-33.1h-1.9c-2.6.1-5.2.2-7.2.4"/>
</svg>
