<svg xmlns="http://www.w3.org/2000/svg" viewBox="0 0 147 30" width="147" height="30">
  <title>FRESH LIVE</title>
  <path style="fill:#27b4e4" d="M22 12.97c0 .198-.05.446-.2.594-.05.05-.05.1-.1.1L20.604 14.9l-2.644 2.97-7.034 7.921-2.644 2.97-.748.842-.15.148a.952.952 0 0 1-.648.248h-.2c-.05 0-.1-.05-.2-.05a1.033 1.033 0 0 1-.299-.198c-.2-.198-.299-.396-.299-.693 0-.099 0-.198.05-.297v-.05l.399-1.237 2.345-7.178.349-1.139v-.05c.05-.098.05-.197.05-.296 0-.297-.15-.594-.4-.792a1.075 1.075 0 0 0-.598-.198H.948c-.499 0-.898-.347-.948-.792v-.149c0-.247.1-.445.25-.643l1.147-1.288 2.644-2.92 6.834-7.525 2.993-3.317.799-.891c.1-.099.25-.198.399-.247.1-.05.2-.05.3-.05.099 0 .199 0 .298.05.4.099.699.495.699.94 0 .1 0 .248-.05.347v.05l-.45 1.187-2.593 7.08-.4 1.089-.05.05c-.049.098-.049.197-.049.296 0 .297.15.594.4.743.149.099.348.198.598.198h7.133c.5 0 .898.346.948.792v.099c0 .05.15 0 .15.05z"></path>
  <path style="fill:#fff" d="M32 22.772h3.758v-5.88h6.188v-3.146h-6.188V10.42h7.06V7.274H32v15.498zm25.347-10.575c0-3.738-2.75-4.878-6.096-4.878h-5.73v15.499h3.759v-5.425h1.787l2.842 5.425h4.171l-3.483-6.109c1.696-.82 2.75-2.279 2.75-4.512zm-8.067-1.96h1.696c1.787 0 2.704.5 2.704 1.914 0 1.459-.963 2.188-2.704 2.188H49.28v-4.103zm14.804 6.153h5.226v-3.1h-5.226v-2.87h6.142V7.274h-9.9v15.498h10.13v-3.1h-6.372V16.39zm17.143-2.416l-1.971-.775c-1.375-.547-2.338-.866-2.338-1.732 0-.82.734-1.276 1.834-1.276 1.191 0 2.154.41 3.208 1.185l1.88-2.325C82.463 7.684 80.54 7 78.751 7c-3.3 0-5.638 2.097-5.638 4.695 0 2.234 1.513 3.601 3.163 4.24l1.97.82c1.33.547 2.2.82 2.2 1.732 0 .82-.641 1.322-2.016 1.322-1.238 0-2.659-.638-3.759-1.595l-2.154 2.552C74.122 22.271 76.322 23 78.34 23c3.759 0 5.959-2.28 5.959-4.877 0-2.097-1.146-3.374-3.071-4.149zm14.53-.775h-5.134V7.274H86.91v15.498h3.713v-6.336h5.133v6.336h3.713V7.274h-3.713v5.925zm8.937-5.925h2.43v13.492h6.783v2.006h-9.213V7.274zm11.963 0h2.43v15.498h-2.43V7.274zm5.225 0h2.338l2.613 8.068c.55 1.778.916 3.282 1.466 5.06h.092c.55-1.778.963-3.282 1.467-5.06l2.612-8.068h2.246l-4.767 15.498h-3.3l-4.767-15.498zm15.493 0h9.396v2.005h-6.967v4.422h5.867v2.006h-5.867v5.105H147v2.006h-9.625V7.274z"></path>
</svg>
